<?xml version="1.0" standalone="no"?>
<!DOCTYPE svg PUBLIC "-//W3C//DTD SVG 20010904//EN"
 "http://www.w3.org/TR/2001/REC-SVG-20010904/DTD/svg10.dtd">
<svg version="1.0" xmlns="http://www.w3.org/2000/svg"
 width="1000.000000pt" height="772.000000pt" viewBox="0 0 1000.000000 772.000000"
 preserveAspectRatio="xMidYMid meet">

<g transform="translate(0.000000,772.000000) scale(0.100000,-0.100000)"
fill="#000000" stroke="none">
<path d="M7803 7536 c-67 -22 -634 -425 -719 -511 -82 -83 -84 -93 -84 -487
l0 -338 -27 -30 c-16 -17 -278 -259 -583 -538 l-555 -508 -7 705 c-5 435 -12
720 -18 743 -13 46 -61 78 -117 78 -47 0 -78 -24 -363 -286 -284 -260 -358
-337 -433 -450 -114 -172 -171 -320 -226 -594 -16 -80 -77 -368 -136 -640
-140 -650 -175 -826 -175 -870 0 -36 -10 -46 -235 -254 -198 -183 -236 -222
-245 -255 -23 -85 37 -161 126 -161 58 0 -29 -76 1194 1046 355 325 949 870
1320 1210 587 538 678 626 703 674 l28 55 6 355 c4 228 10 360 16 368 16 21
599 434 618 439 37 10 55 -28 73 -158 9 -68 54 -410 101 -759 46 -349 87 -653
90 -674 l6 -40 -743 -743 -743 -743 -302 0 c-166 0 -312 -4 -325 -9 -34 -13
-77 -60 -86 -95 -12 -43 2 -85 40 -123 l33 -32 1240 -6 c712 -4 1247 -11 1258
-17 11 -6 17 -20 17 -43 0 -31 -16 -53 -129 -178 -265 -292 -477 -422 -836
-514 l-100 -25 -820 -5 c-889 -4 -877 -4 -974 -60 -71 -41 -320 -232 -337
-259 -21 -31 -20 -96 2 -133 35 -59 116 -81 172 -46 15 10 84 60 153 111 69
52 142 100 162 109 31 13 107 15 479 16 244 0 623 4 843 9 357 7 409 10 485
29 284 71 507 179 705 341 74 61 315 303 377 381 58 71 79 127 80 217 1 58 -4
89 -20 124 -28 64 -107 146 -167 174 -50 24 -51 24 -466 24 -229 0 -572 3
-763 7 l-347 6 654 656 c359 361 664 673 677 695 30 50 37 147 20 298 -21 200
-190 1452 -201 1493 -26 94 -89 168 -178 208 -57 25 -162 32 -218 13z m-2243
-1995 l0 -670 -342 -313 c-533 -488 -543 -497 -545 -495 -1 1 45 219 102 483
57 265 122 573 145 684 47 229 80 337 140 448 79 146 134 207 427 475 35 31
65 57 68 57 3 0 5 -301 5 -669z"/>
<path d="M3574 3259 c-16 -5 -41 -20 -53 -33 -27 -28 -42 -80 -311 -1023 -96
-337 -177 -613 -180 -613 -3 0 -174 193 -380 429 -206 236 -387 436 -402 445
-14 9 -46 16 -71 16 -54 0 -100 -33 -116 -83 -13 -39 -18 -12 115 -681 52
-263 94 -480 92 -481 -2 -2 -185 42 -408 96 -223 55 -429 101 -457 102 -49 2
-55 -1 -90 -36 -34 -33 -38 -43 -38 -86 0 -43 5 -54 49 -106 72 -84 928 -939
1014 -1013 l73 -62 1204 0 1204 0 58 47 c63 51 68 55 518 454 522 464 659 590
674 617 20 38 17 99 -6 130 -11 15 -36 35 -56 45 -45 23 -18 28 -554 -104
-198 -49 -368 -89 -376 -89 -12 0 -14 9 -10 38 2 20 28 307 58 637 53 600 53
600 34 637 -36 70 -130 91 -189 42 -31 -26 -165 -194 -564 -706 -115 -148
-212 -268 -215 -268 -3 0 -98 321 -210 713 -241 843 -257 895 -291 918 -32 23
-77 30 -116 18z m211 -1204 c225 -783 232 -806 259 -833 43 -44 125 -48 167
-9 25 24 211 257 474 595 111 142 181 225 183 214 1 -9 -18 -235 -42 -502 -48
-529 -49 -523 8 -568 49 -38 71 -36 342 29 142 34 265 64 274 66 25 9 -32 -44
-380 -356 l-335 -300 -1120 -1 -1120 0 -250 253 c-345 348 -422 429 -405 423
73 -24 566 -136 598 -136 55 0 88 17 114 57 27 45 26 54 -67 522 -41 206 -73
376 -72 377 1 1 116 -127 254 -284 139 -158 279 -315 312 -349 56 -60 62 -63
106 -63 57 0 100 23 119 65 19 39 62 188 241 815 166 585 167 589 171 575 2
-5 78 -271 169 -590z"/>
</g>
</svg>
